# xmcd
#
# Track frame offsets: 
#        182
#        21355
#        45447
#        61895
#        84657
#        97862
#        115802
#        132237
#        151107
#        174560
#        190205
#
# Disc length: 2755 seconds
#
# Revision: 1
# Processed by: cddbd v1.5.1PL2 Copyright (c) Steve Scherf et al.
# Submitted via: ExactAudioCopy v0.95b4
#
DISCID=820ac10b
DTITLE=Dazz Band - Motown Legends:  Let It Whip - Joystick
DYEAR=1994
DGENRE=R&B
TTITLE0=Let It Whip
TTITLE1=Heartbeat
TTITLE2=Sooner Or Later
TTITLE3=Shake It Up
TTITLE4=I Believe In You
TTITLE5=Joystick
TTITLE6=Shake What You Got
TTITLE7=Bad Girl
TTITLE8=Hot Spot
TTITLE9=So Much Love
TTITLE10=I'll Keep On Lovin' You
EXTD=
EXTT0=
EXTT1=
EXTT2=
EXTT3=
EXTT4=
EXTT5=
EXTT6=
EXTT7=
EXTT8=
EXTT9=
EXTT10=
PLAYORDER=
